<svg width="32" height="36" viewBox="0 0 32 36" fill="none" xmlns="http://www.w3.org/2000/svg">
<path d="M3.53027 2.98475V9.39093H8.44414C10.8389 9.39093 12.3472 7.8509 12.3472 6.17593C12.3472 4.50096 10.8389 2.96094 8.44414 2.96094H3.54582L3.53027 2.98475Z" fill="#292D35"/>
<path d="M15.9938 6.16803C15.9938 9.63705 13.3502 12.3361 8.43637 12.3361H3.53027V17.996V30.34H3.65468L12.4717 17.996H16.0016V35.2459L28.4728 18.004H15.9938V8.13671L21.8018 0H8.43637C13.3502 0 15.9938 2.69901 15.9938 6.16803Z" fill="#292D35"/>
<path d="M31.9999 18L27.6692 23.9934H31.9999L27.6614 29.9947H27.677H31.9999L27.6614 35.996V30.0185L23.3462 35.996V29.9947H27.6614V24.0013L18.9922 35.996H31.9999V18Z" fill="#292D35"/>
<path d="M12.3395 23.6562L3.53027 36.0002H12.4717V23.6562H12.3395Z" fill="#292D35"/>
<path d="M0 0V7.92238L5.65251 0H0Z" fill="#68A99B"/>
<path d="M26.412 2.96106L19.6943 12.3679V11.6058L25.8677 2.96106H26.412ZM24.5226 2.96106L19.6943 9.72446V10.4865L25.0669 2.96106H24.5226ZM27.2128 2.96106L19.6943 13.4872V14.2493L27.7571 2.96106H27.2128ZM21.8325 2.96106L19.6943 5.95379V6.71586L22.3845 2.95312H21.8325V2.96106ZM28.4646 3.08808L19.6943 15.3606V16.1227L28.4646 3.85015V3.08808ZM20.4874 2.96106L19.6865 4.08036V4.84243L21.0316 2.96106H20.4874ZM23.1775 2.96106L19.6943 7.84309V8.60516L23.7218 2.96106H23.1775ZM28.4646 4.96944L19.6943 17.242V18.0041L28.4646 5.73152V4.96944Z" fill="#68A99B"/>
<path d="M21.8014 0L19.6944 2.96097H28.4647V18.004L15.9934 35.2459V18.004H12.4713L3.6543 30.348H3.5299V18.004H0V36H3.5299L12.3391 23.656H12.4713V24.9341L4.56399 36H5.10825L12.4713 25.6961V27.1409L6.14234 36H6.6866L12.4713 27.9109V29.3557L7.72069 36H8.26494L12.4713 30.1178V31.5705L9.29903 36H9.85107L12.4713 32.3325V33.7852L10.8852 36H11.4294L12.4713 34.5473V36H18.979L31.9868 18.004V0H21.8014Z" fill="#68A99B"/>
<path d="M29.3189 0H29.8631L27.7561 2.96097H27.2118L29.3189 0ZM31.9857 0.031753L28.4558 4.96935V5.73142L31.9857 0.793826V0.031753ZM25.8667 2.96097H26.411L28.5258 0H27.9815L25.8667 2.96097ZM28.4636 3.08798V3.85006L31.2082 0H30.6639L28.4636 3.08798ZM21.8314 2.96097H22.3757L24.4905 0H23.9463L21.8314 2.96097ZM20.4863 2.96097H21.0306L23.1454 0H22.6012L20.4863 2.96097ZM23.1765 2.96097H23.7208L25.8356 0H25.2913L23.1765 2.96097ZM24.5216 2.96097H25.0659L27.1807 0H26.6364L24.5216 2.96097Z" fill="#292D35"/>
<path d="M29.2655 18.0039L16.2422 35.9999H16.7942L29.8175 18.0039H29.2655Z" fill="#292D35"/>
<path d="M30.6337 18.0039L17.6104 35.9999H18.1546L31.1779 18.0039H30.6337Z" fill="#292D35"/>
</svg>
