<svg width="64" height="20" viewBox="0 0 64 20" fill="none" xmlns="http://www.w3.org/2000/svg">
<rect width="20" height="20" fill="#989898"/>
<rect x="21.9355" width="20" height="20" fill="#989898"/>
<rect x="43.2266" width="20" height="20" fill="#989898"/>
<path d="M17.4194 11.786C17.4194 14.5408 13.9459 16.774 9.6612 16.774C5.63424 16.774 2.32388 14.8014 1.94011 12.2772C1.89916 12.0078 2.13946 11.786 2.43119 11.786H3.30226C3.59399 11.786 3.82434 12.0102 3.89809 12.2734C4.32691 13.8041 6.74384 14.9765 9.6612 14.9765C12.8814 14.9765 15.4919 13.5481 15.4919 11.786V5.51572C15.4919 5.24362 15.2554 5.02305 14.9637 5.02305H8.31009C8.01837 5.02305 7.78187 4.80247 7.78187 4.53038V3.71825C7.78187 3.44616 8.01837 3.22559 8.31009 3.22559H16.8912C17.1829 3.22559 17.4194 3.44616 17.4194 3.71825V11.786Z" fill="#202020"/>
<path fill-rule="evenodd" clip-rule="evenodd" d="M31.6124 14.988C34.4985 14.988 36.8382 12.7547 36.8382 9.99978C36.8382 7.24483 34.4985 5.01151 31.6124 5.01151C28.7263 5.01151 26.3866 7.24483 26.3866 9.99978C26.3866 12.7547 28.7263 14.988 31.6124 14.988ZM31.6124 16.774C35.5318 16.774 38.7092 13.7411 38.7092 9.99978C38.7092 6.2585 35.5318 3.22559 31.6124 3.22559C27.693 3.22559 24.5156 6.2585 24.5156 9.99978C24.5156 13.7411 27.693 16.774 31.6124 16.774Z" fill="#202020"/>
<rect width="17.7924" height="1.82931" rx="0.914656" transform="matrix(0.723284 -0.690551 0.723284 0.690551 46.4512 15.5107)" fill="#202020"/>
<rect width="17.7925" height="1.82932" rx="0.91466" transform="matrix(-0.723355 -0.690476 -0.723355 0.690476 60.6445 15.5107)" fill="#202020"/>
</svg>
